{
	"asset": {
		"version": "2.0",
		"generator": "wow.export v0.2.4 cli [m2-to-gltf-script]"
	},
	"nodes": [
		{
			"name": "6025944",
			"children": [
				1,
				3
			]
		},
		{
			"name": "6025944",
			"children": [
				2
			]
		},
		{
			"name": "bone_0",
			"translation": [
				0,
				0,
				-0.00002272923848067876
			]
		},
		{
			"name": "6025944_Geoset_0_0",
			"mesh": 0,
			"skin": 0
		}
	],
	"scenes": [
		{
			"name": "6025944_Scene",
			"nodes": [
				0
			]
		}
	],
	"buffers": [
		{
			"byteLength": 20692,
			"uri": "6025944.bin"
		}
	],
	"bufferViews": [
		{
			"buffer": 0,
			"byteLength": 5076,
			"byteOffset": 0,
			"target": 34962
		},
		{
			"buffer": 0,
			"byteLength": 5076,
			"byteOffset": 5076,
			"target": 34962
		},
		{
			"buffer": 0,
			"byteLength": 1692,
			"byteOffset": 10152,
			"target": 34962
		},
		{
			"buffer": 0,
			"byteLength": 1692,
			"byteOffset": 11844,
			"target": 34962
		},
		{
			"buffer": 0,
			"byteLength": 64,
			"byteOffset": 13536
		},
		{
			"buffer": 0,
			"byteLength": 3384,
			"byteOffset": 13600,
			"target": 34962
		},
		{
			"buffer": 0,
			"byteLength": 3384,
			"byteOffset": 16984,
			"target": 34962
		},
		{
			"buffer": 0,
			"byteLength": 324,
			"byteOffset": 20368,
			"target": 34963
		}
	],
	"accessors": [
		{
			"name": "POSITION",
			"bufferView": 0,
			"byteOffset": 0,
			"componentType": 5126,
			"count": 423,
			"type": "VEC3",
			"min": [
				-0.14439955353736877,
				-0.014630054123699665,
				-0.1415242701768875
			],
			"max": [
				0.15971402823925018,
				1.1078779697418213,
				0.15422292053699493
			]
		},
		{
			"name": "NORMAL",
			"bufferView": 1,
			"byteOffset": 0,
			"componentType": 5126,
			"count": 423,
			"type": "VEC3",
			"min": [
				-0.9999186992645264,
				-1,
				-0.9999184608459473
			],
			"max": [
				0.9999186992645264,
				1,
				0.9999184608459473
			]
		},
		{
			"name": "JOINTS_0",
			"byteOffset": 0,
			"componentType": 5121,
			"count": 423,
			"type": "VEC4",
			"bufferView": 2,
			"min": [
				0,
				0,
				0,
				0
			],
			"max": [
				0,
				0,
				0,
				0
			]
		},
		{
			"name": "WEIGHTS_0",
			"byteOffset": 0,
			"componentType": 5121,
			"count": 423,
			"normalized": true,
			"type": "VEC4",
			"bufferView": 3,
			"min": [
				255,
				0,
				0,
				0
			],
			"max": [
				255,
				0,
				0,
				0
			]
		},
		{
			"name": "INV_BIND_MATRICES",
			"byteOffset": 0,
			"componentType": 5126,
			"count": 1,
			"type": "MAT4",
			"bufferView": 4,
			"min": [
				1,
				0,
				0,
				0,
				0,
				1,
				0,
				0,
				0,
				0,
				1,
				0,
				0,
				0,
				0.00002272923848067876,
				1
			],
			"max": [
				1,
				0,
				0,
				0,
				0,
				1,
				0,
				0,
				0,
				0,
				1,
				0,
				0,
				0,
				0.00002272923848067876,
				1
			]
		},
		{
			"name": "TEXCOORD_0",
			"bufferView": 5,
			"byteOffset": 0,
			"componentType": 5126,
			"count": 423,
			"type": "VEC2",
			"min": [
				0.021849000826478004,
				0.008653998374938965
			],
			"max": [
				0.9571110010147095,
				0.9873859882354736
			]
		},
		{
			"name": "TEXCOORD_1",
			"bufferView": 6,
			"byteOffset": 0,
			"componentType": 5126,
			"count": 423,
			"type": "VEC2",
			"min": [
				0,
				0
			],
			"max": [
				0,
				0
			]
		},
		{
			"bufferView": 7,
			"byteOffset": 0,
			"componentType": 5121,
			"count": 324,
			"type": "SCALAR"
		}
	],
	"meshes": [
		{
			"primitives": [
				{
					"attributes": {
						"POSITION": 0,
						"NORMAL": 1,
						"JOINTS_0": 2,
						"WEIGHTS_0": 3,
						"TEXCOORD_0": 5,
						"TEXCOORD_1": 6
					},
					"indices": 7,
					"mode": 4
				}
			]
		}
	],
	"scene": 0,
	"skins": [
		{
			"name": "6025944_Armature",
			"joints": [
				2
			],
			"inverseBindMatrices": 4,
			"skeleton": 0
		}
	]
}